<svg width="44" height="44" viewBox="0 0 44 44" fill="none" xmlns="http://www.w3.org/2000/svg">
<g clip-path="url(#clip0_10935_237803)">
<path fill-rule="evenodd" clip-rule="evenodd" d="M12.5182 15.153H15.8967C16.9711 15.153 17.8503 16.0321 17.8503 17.1068V22.724C17.8503 23.7984 16.9711 24.6777 15.8967 24.6777H12.5182C11.4437 24.6777 10.5645 23.7984 10.5645 22.724V17.1068C10.5645 16.0321 11.4437 15.153 12.5182 15.153Z" fill="white"/>
<path fill-rule="evenodd" clip-rule="evenodd" d="M12.5179 15.1548H15.8962C16.9707 15.1548 17.8499 16.0341 17.8499 17.1086V22.7258C17.8499 23.8003 16.9707 24.6796 15.8962 24.6796H12.5179C11.4433 24.6796 10.564 23.8003 10.564 22.7258V17.1086C10.564 16.0341 11.4433 15.1548 12.5179 15.1548ZM17.1173 33.0645H11.2967C10.446 33.0645 9.75 32.3682 9.75 31.5176V14.4629C9.75 13.6123 10.446 12.9162 11.2967 12.9162H17.1173C17.1863 12.9162 17.2541 12.9208 17.3209 12.9297V11.6747C17.3209 11.3053 17.6231 11.0031 17.9924 11.0031C18.3618 11.0031 18.664 11.3053 18.664 11.6747V13.7913C18.664 13.8851 18.6444 13.9747 18.6092 14.0561C18.6449 14.1859 18.664 14.3223 18.664 14.4629V31.5176C18.664 32.3682 17.9681 33.0645 17.1173 33.0645Z" fill="#CCE86E"/>
<path fill-rule="evenodd" clip-rule="evenodd" d="M22.0264 16.4393C22.9433 16.3078 23.6472 16.5627 23.6952 18.0064C23.6649 19.2954 22.9798 19.6216 22.0264 19.5532V16.4393ZM20.0312 15.5126L23.7457 15.4982C25.0999 15.6703 25.7257 16.6838 25.6689 18.1584C25.5657 19.6447 24.7231 20.3711 23.3159 20.4985L21.9675 20.4717L22.0054 24.5488H20.0312V15.5126" fill="#80CC28"/>
<path fill-rule="evenodd" clip-rule="evenodd" d="M29.1191 15.3985L31.4707 15.3877L31.4532 16.397L29.6111 16.3888C28.5483 16.5862 28.7863 17.72 28.7347 18.5394L31.2128 18.493L31.2214 19.7318L28.8205 19.7063L28.8089 22.7064C28.9033 23.4841 29.3126 23.8753 30.0037 23.9207L31.3228 23.9062L31.7249 23.9149L31.7124 24.8515L31.3004 24.8672L28.7935 24.8405C27.9296 24.8113 27.232 24.3828 26.9111 23.0509L26.8496 17.2305C26.8848 16.0373 27.6729 15.4521 29.1191 15.3985" fill="#80CC28"/>
<path fill-rule="evenodd" clip-rule="evenodd" d="M32.3338 17.9542C32.1856 16.0046 33.272 15.5642 34.593 15.4103C36.1393 15.3187 37.1103 15.9635 37.2997 17.6086L35.4743 17.6037C35.3588 16.7739 34.7132 16.4549 34.1225 16.8498C33.2804 17.88 35.9081 19.6928 36.6959 20.3651C38.0578 21.4422 37.8271 24.4276 35.7295 24.9811L34.4505 25.0265C33.1512 25.0571 32.378 24.2366 32.1543 22.7152L33.9934 22.6828C34.0936 23.3325 34.3707 23.7363 34.9593 23.7075C35.875 23.5336 36.1269 22.7274 35.4755 21.6987C34.1122 20.5408 32.4977 19.4547 32.3338 17.9542" fill="#80CC28"/>
<path fill-rule="evenodd" clip-rule="evenodd" d="M0.00195312 15.1056H1.93504L1.95536 15.706C3.12349 15.2012 4.00438 14.8445 4.92711 15.6755C6.57695 14.8964 7.8246 14.9851 8.44326 16.4311L8.5294 24.5488H6.58013V16.8057C6.43581 16.1428 5.91097 16.0295 5.27761 16.0731V24.5488H3.28311V16.8057C3.13882 16.1428 2.61396 16.0295 1.98065 16.0731V24.5488H0.00195312V15.1056Z" fill="#80CC28"/>
<path fill-rule="evenodd" clip-rule="evenodd" d="M40.3896 17.1514C40.4557 16.6191 40.6288 16.4048 41.2137 16.3474C41.807 16.3628 42.0181 16.7051 42.0584 17.2327V18.6777H40.3896V17.1514V17.1514ZM38.3848 24.7832H40.3896V19.7971H42.0584V24.7832H44.0019V17.6601C43.9631 16.2125 42.8504 15.3053 41.2747 15.2993C39.4772 15.2834 38.4523 16.1359 38.3848 17.5787V24.7832" fill="#80CC28"/>
<path fill-rule="evenodd" clip-rule="evenodd" d="M12.1202 18.9536C12.4545 19.7354 12.9094 20.0948 13.4607 20.1167C12.601 20.7589 11.6711 21.1492 10.7016 21.3984C10.0928 21.3594 9.5105 21.2045 8.94531 21.0497C10.3734 20.7678 11.4383 20.0766 12.1202 18.9536Z" fill="#7F1D1E"/>
<path d="M12.1202 18.9536C12.4545 19.7354 12.9094 20.0948 13.4607 20.1167C12.601 20.7589 11.6711 21.1492 10.7016 21.3984C10.0928 21.3594 9.5105 21.2045 8.94531 21.0497C10.3734 20.7678 11.4383 20.0766 12.1202 18.9536Z" stroke="#CD7F4B" stroke-width="0.0188379" stroke-miterlimit="2.61313"/>
<path fill-rule="evenodd" clip-rule="evenodd" d="M15.8666 16.9391L19.8963 18.9744C17.844 21.6745 14.3833 21.7456 10.6973 21.3962C13.1615 20.7891 14.8677 19.2831 15.8666 16.9391Z" fill="#EC1D27"/>
<path d="M15.8666 16.9391L19.8963 18.9744C17.844 21.6745 14.3833 21.7456 10.6973 21.3962C13.1615 20.7891 14.8677 19.2831 15.8666 16.9391Z" stroke="#CD7F4B" stroke-width="0.018838" stroke-miterlimit="2.61313"/>
</g>
<defs>
<clipPath id="clip0_10935_237803">
<rect width="44" height="44" fill="white"/>
</clipPath>
</defs>
</svg>
