<svg width="82" height="44" viewBox="0 0 82 44" fill="none" xmlns="http://www.w3.org/2000/svg">
<path d="M58.625 14.793H66.7687V29.2059H58.625V14.793Z" fill="#FF5F00"/>
<path d="M59.1413 21.9997C59.1413 19.0718 60.5372 16.474 62.6828 14.7939C61.0381 13.519 59.0199 12.8294 56.9442 12.833C51.7989 12.833 47.6367 16.9325 47.6367 21.9997C47.6367 27.0668 51.7989 31.1663 56.9435 31.1663C59.1153 31.1663 61.1057 30.4276 62.6828 29.2055C60.5372 27.551 59.1413 24.9282 59.1413 22.0003V21.9997Z" fill="#EB001B"/>
<path d="M77.7538 21.9997C77.7538 27.0668 73.591 31.1663 68.4463 31.1663C66.3704 31.1701 64.3519 30.4804 62.707 29.2055C64.8787 27.5254 66.2492 24.9282 66.2492 22.0003C66.2492 19.0712 64.8527 16.474 62.707 14.7939C64.3519 13.5189 66.3704 12.8293 68.4463 12.833C73.591 12.833 77.7538 16.9581 77.7538 21.9997Z" fill="#F79E1B"/>
<path d="M38.4667 33H4V11H38.4667V33Z" fill="white"/>
<path d="M4.57227 29.4258H37.8899V32.4272H4.57227V29.4258Z" fill="#F7B600"/>
<path d="M4.57227 14.5785H37.8899V11.5771H4.57227V14.5778V14.5785ZM20.9442 17.8853L19.1875 26.1355H17.0641L18.8201 17.8853H20.9434H20.9442ZM29.8805 23.2129L30.9987 20.1138L31.6417 23.2129H29.8797H29.8805ZM32.2516 26.1355H34.2154L32.4993 17.8853H30.6877C30.2796 17.8853 29.9347 18.1232 29.7826 18.4899L26.5953 26.1355H28.8263L29.2691 24.9034H31.9941L32.2516 26.1355ZM26.706 23.4425C26.7157 21.2648 23.7106 21.1443 23.731 20.1713C23.7377 19.8758 24.0178 19.5606 24.6315 19.4803C24.9357 19.4409 25.7745 19.4091 26.7263 19.8493L27.0983 18.099C26.4627 17.8604 25.7902 17.7373 25.1119 17.7352C23.0111 17.7352 21.5345 18.8552 21.5225 20.4616C21.5097 21.6497 22.5782 22.3119 23.3816 22.7075C24.2098 23.1114 24.4877 23.3713 24.4832 23.7327C24.4779 24.2858 23.8228 24.5306 23.2129 24.5404C22.1444 24.5571 21.5255 24.2502 21.0315 24.0184L20.646 25.8271C21.143 26.0559 22.0594 26.2552 23.0073 26.265C25.2399 26.265 26.6992 25.1572 26.706 23.4425ZM17.909 17.8853L14.4679 26.1355H12.221L10.5275 19.5508C10.4251 19.1461 10.3355 18.9976 10.023 18.8264C9.51253 18.5475 8.6692 18.2869 7.92752 18.1247L7.97797 17.8853H11.5922C12.0531 17.8853 12.4672 18.1929 12.5719 18.7264L13.4672 23.5001L15.6764 17.8853H17.9082H17.909Z" fill="#1A1F71"/>
</svg>
